#tb 0: 1/25
#media_type 0: video
#codec_id 0: rawvideo
#dimensions 0: 416x240
#sar 0: 0/1
0,          0,          0,        1,   149760, 0x8ce7200b
0,          1,          1,        1,   149760, 0x73610669
0,          2,          2,        1,   149760, 0x42942047
0,          3,          3,        1,   149760, 0x57334d85
0,          4,          4,        1,   149760, 0xdd97fbb3
0,          5,          5,        1,   149760, 0x10469b12
0,          6,          6,        1,   149760, 0x9b4231f0
0,          7,          7,        1,   149760, 0x2b295a52
0,          8,          8,        1,   149760, 0xdaf7c29f
0,          9,          9,        1,   149760, 0x6798d072
0,         10,         10,        1,   149760, 0xf77ae91e
0,         11,         11,        1,   149760, 0xe2d516c9
0,         12,         12,        1,   149760, 0x5cf0b221
0,         13,         13,        1,   149760, 0x1d34991e
0,         14,         14,        1,   149760, 0xb730d93a
0,         15,         15,        1,   149760, 0x643b1861
0,         16,         16,        1,   149760, 0x436586ff
0,         17,         17,        1,   149760, 0xa65d9b80
0,         18,         18,        1,   149760, 0x1d395210
0,         19,         19,        1,   149760, 0x0580f2be
0,         20,         20,        1,   149760, 0x8e4cea96
0,         21,         21,        1,   149760, 0x6c98d019
0,         24,         24,        1,   149760, 0x842803c8
0,         25,         25,        1,   149760, 0xddc196ee
0,         26,         26,        1,   149760, 0x89e45523
0,         27,         27,        1,   149760, 0x2a36b008
0,         28,         28,        1,   149760, 0x14a319f7
0,         29,         29,        1,   149760, 0x7394854c
0,         30,         30,        1,   149760, 0x26dcf933
0,         31,         31,        1,   149760, 0x5b000b7e
0,         32,         32,        1,   149760, 0x6e76bded
0,         33,         33,        1,   149760, 0x0284d92d
0,         34,         34,        1,   149760, 0xf14a25e0
0,         35,         35,        1,   149760, 0x10c03d98
